<svg xmlns:osb="http://www.openswatchbook.org/uri/2009/osb" xmlns="http://www.w3.org/2000/svg" id="svg9146" viewBox="0 0 128 128" height="128" width="128"><defs id="defs9148"><linearGradient osb:paint="solid" id="linearGradient24189"><stop id="stop24191" offset="0" stop-color="#f70000"/></linearGradient></defs><g id="layer1"><g id="g9121" transform="translate(-954.036 -35.753) scale(1.8656)"><path d="M569.7772 56.2665c-.427-12.67-10.61-22.884-23.271-23.352v3.861h-2.556v-3.823c-11.586.79-20.948 9.744-22.356 21.153h3.639v2.556h-3.82c-.002.143-.022.282-.022.425 0 12.793 9.981 23.274 22.56 24.131v-3.821h2.556v3.86c12.352-.456 22.352-10.19 23.226-22.432h-3.75v-2.556h3.796v-.002zm-13.207-8.564c-2.558 2.529-5.114 5.057-7.674 7.585.442.642.702 1.417.702 2.257 0 2.206-1.786 3.993-3.991 3.993-2.207 0-3.993-1.787-3.993-3.993s1.787-3.992 3.993-3.992c.445 0 .866.089 1.266.225 2.643-2.614 5.287-5.227 7.93-7.841 1.146-1.131 2.912.634 1.767 1.766z" id="path8072" fill="none"/><path d="M545.6042 27.7565c-16.17 0-29.326 13.156-29.326 29.327 0 16.172 13.156 29.328 29.326 29.328 16.171 0 29.328-13.156 29.328-29.328 0-16.171-13.154-29.327-29.328-29.327zm24.127 31.067c-.874 12.241-10.874 21.974-23.226 22.431v-3.861h-2.556v3.824c-12.579-.858-22.56-11.34-22.56-24.134 0-.142.02-.28.022-.422h3.82v-2.556h-3.639c1.408-11.41 10.771-20.364 22.358-21.154v3.823h2.557v-3.861c12.658.468 22.845 10.682 23.271 23.352h-3.799v2.557l3.752.001z" id="path8074" fill="#f88e1f"/><path d="M539.9332 26.1065h11.344c.906 0 1.641-1.251 1.641-2.791 0-1.539-.734-2.787-1.641-2.787h-11.344c-.906 0-1.639 1.249-1.639 2.787 0 1.54.733 2.791 1.639 2.791z" id="path8076" fill="#f88e1f"/><path d="M576.0472 35.1635l-8.022-8.017c-.642-.643-2.041-.277-3.132.809-1.089 1.092-1.453 2.494-.812 3.135l8.021 8.02c.642.641 2.045.278 3.135-.814 1.088-1.086 1.45-2.488.81-3.133z" id="path8078" fill="#f88e1f"/><path id="path8232" d="M515.3337 35.1635l8.022-8.017c.642-.643 2.041-.277 3.132.809 1.089 1.092 1.453 2.494.812 3.135l-8.021 8.02c-.642.641-2.045.278-3.135-.814-1.088-1.086-1.45-2.488-.81-3.133z" fill="#f88e1f"/><path id="path8234" d="M560.5338 43.336c.1863-.2236.193-.5546 0-.786-.2173-.26-.604-.2956-.8642-.0783l-15.3012 12.762c-.1064.0896-.2156.1977-.308.308-.855 1.0252-.7166 2.5487.308 3.4033 1.0247.8547 2.5487.7167 3.4033-.308l12.762-15.301z" fill="#f88e1f"/><ellipse id="path9119" cx="545.7512" cy="57.1041" rx="2.905" ry="3.1884" fill="#f88e1f" stroke-width="1.072"/></g></g></svg>